<svg id="eZvqaQLnltw1" xmlns="http://www.w3.org/2000/svg" xmlns:xlink="http://www.w3.org/1999/xlink" viewBox="0 0 1920 502" shape-rendering="geometricPrecision" text-rendering="geometricPrecision">
<style><![CDATA[
#eZvqaQLnltw5_to {animation: eZvqaQLnltw5_to__to 8000ms linear infinite normal forwards}@keyframes eZvqaQLnltw5_to__to { 0% {transform: translate(674.460693px,233.810463px)} 50% {transform: translate(1274.460693px,193.810463px)} 100% {transform: translate(674.460693px,233.810463px)}} #eZvqaQLnltw6_to {animation: eZvqaQLnltw6_to__to 8000ms linear infinite normal forwards}@keyframes eZvqaQLnltw6_to__to { 0% {transform: translate(1362.5px,357.493507px)} 50% {transform: translate(542.5px,314.493507px)} 100% {transform: translate(1362.5px,357.493507px)}} #eZvqaQLnltw7_to {animation: eZvqaQLnltw7_to__to 8000ms linear infinite normal forwards}@keyframes eZvqaQLnltw7_to__to { 0% {transform: translate(652.5px,446.99823px)} 50% {transform: translate(1232.5px,386.99823px)} 100% {transform: translate(652.5px,446.99823px)}}
]]></style>
<defs><linearGradient id="eZvqaQLnltw5-fill" x1="1106.35" y1="-216.282" x2="831.748" y2="485.978" spreadMethod="pad" gradientUnits="userSpaceOnUse" gradientTransform="translate(0 0)"><stop id="eZvqaQLnltw5-fill-0" offset="0%" stop-color="#6070fe"/><stop id="eZvqaQLnltw5-fill-1" offset="100%" stop-color="#3d458b"/></linearGradient><linearGradient id="eZvqaQLnltw6-fill" x1="982.513" y1="39.4326" x2="1100.69" y2="532.929" spreadMethod="pad" gradientUnits="userSpaceOnUse" gradientTransform="translate(0 0)"><stop id="eZvqaQLnltw6-fill-0" offset="0%" stop-color="#6070fe"/><stop id="eZvqaQLnltw6-fill-1" offset="100%" stop-color="#3d458b"/></linearGradient><linearGradient id="eZvqaQLnltw7-fill" x1="1099.04" y1="272" x2="1065.41" y2="526.448" spreadMethod="pad" gradientUnits="userSpaceOnUse" gradientTransform="translate(0 0)"><stop id="eZvqaQLnltw7-fill-0" offset="0%" stop-color="#6070fe"/><stop id="eZvqaQLnltw7-fill-1" offset="100%" stop-color="#3d458b"/></linearGradient></defs><g clip-path="url(#eZvqaQLnltw8)"><g><rect width="1920" height="502" rx="0" ry="0" fill="#0a0d22"/><g id="eZvqaQLnltw5_to" transform="translate(674.460693,233.810463)"><path d="M-162.322,58.3669C-364.728,-114.939,-352.406,382.192,-304.307,503L2441,503v-539.9142c0,0-103.02-71.6418-168.34-69.7728-65.31,1.868,114.53,415.689-140.98,173.968s-284.77,160.136-384.81,92.262c-100.03-67.8745-205.07-118.3307-319.38-51.249-114.3,67.081-200.59-107.774537-378.78-109.64281C870.516,-3.21707,836.322,101.314,767.443,108.294c-68.878,6.98-147.248-381.083-245.492-151.6719C423.706,186.033,308.022,5.56738,174.053,26.3159C40.0842,47.0644,40.0846,231.673,-162.322,58.3669Z" transform="translate(-1053.499878,-193.500008)" fill="url(#eZvqaQLnltw5-fill)"/></g><g id="eZvqaQLnltw6_to" transform="translate(1362.5,357.493507)"><path d="M2317.58,216.44C2533.4,73.007,2401.72,425.179,2467,503h-2889v-347.967c0,0,25.748-40.21,94.479-39.006c68.732,1.203,41.869,249.4,310.7488,93.614C252.107,53.8553,180.739,295.554,308.457,248.617c127.718-46.936,194.642-110.587,336.1-33.029c141.457,77.559,166.805-73.827,354.323-75.031c187.52-1.205,267.06,160.882,352.23,158.473c85.17-2.408,164.6-329.7844,275.17-97.399c110.57,232.386,263.8-7.764,364.63-61.074c100.83-53.3107,110.86,219.317,326.67,75.883Z" transform="translate(-1022.5,-309.500244)" fill="url(#eZvqaQLnltw6-fill)"/></g><g id="eZvqaQLnltw7_to" transform="translate(652.5,446.99823)"><path d="M-82.6421,359.823C-125.465,401.043,-158.301,463.389,-217,502h2579v-172.645c0,0-6.05-57.948-67.85-57.35-61.81.597-139.73,146.961-281.48,148.753s-153.84-87.818-314.4-87.818-251.25,69.896-356.05,68.103c-104.8-1.792-132.34-114.701-300.96-115.298-168.617-.598-209.597,153.532-286.181,152.337-76.584-1.194-146.45-220.441-245.875-105.142-99.424,115.298-178.024,203.714-319.1,115.298-141.0753-88.415-229.9234-129.636-272.7461-88.415Z" transform="translate(-1072.5,-387.000214)" fill="url(#eZvqaQLnltw7-fill)"/></g></g><clipPath id="eZvqaQLnltw8"><rect width="1920" height="502" rx="0" ry="0" fill="#fff"/></clipPath></g></svg>
