<svg width="19" height="19" viewBox="0 0 19 19" fill="none" xmlns="http://www.w3.org/2000/svg">
<path d="M4.84622 6.1864C4.84622 4.95584 5.33506 3.77568 6.2052 2.90554C7.07534 2.03541 8.2555 1.54657 9.48606 1.54657C10.7166 1.54657 11.8968 2.03541 12.7669 2.90554C13.637 3.77568 14.1259 4.95584 14.1259 6.1864C14.1259 11.5995 16.4458 13.1461 16.4458 13.1461H2.52631C2.52631 13.1461 4.84622 11.5995 4.84622 6.1864Z" stroke="#828282" stroke-width="1.54661" stroke-linecap="round" stroke-linejoin="round"/>
<path d="M8.1481 16.2394C8.28405 16.4738 8.47919 16.6683 8.71398 16.8035C8.94877 16.9388 9.21496 17.0099 9.48591 17.0099C9.75686 17.0099 10.0231 16.9388 10.2578 16.8035C10.4926 16.6683 10.6878 16.4738 10.8237 16.2394" stroke="#828282" stroke-width="1.54661" stroke-linecap="round" stroke-linejoin="round"/>
</svg>
