<svg width="18" height="19" viewBox="0 0 18 19" fill="none" xmlns="http://www.w3.org/2000/svg">
<g clip-path="url(#clip0_351_98)">
<path d="M8.76402 13.3438C10.7808 13.3438 12.4157 11.7089 12.4157 9.69206C12.4157 7.67527 10.7808 6.04034 8.76402 6.04034C6.74723 6.04034 5.1123 7.67527 5.1123 9.69206C5.1123 11.7089 6.74723 13.3438 8.76402 13.3438Z" stroke="#828282" stroke-width="1.46069" stroke-linecap="round" stroke-linejoin="round"/>
<path d="M8.76416 1.65826V3.11895" stroke="#828282" stroke-width="1.46069" stroke-linecap="round" stroke-linejoin="round"/>
<path d="M8.76416 16.2652V17.7259" stroke="#828282" stroke-width="1.46069" stroke-linecap="round" stroke-linejoin="round"/>
<path d="M3.08203 4.00995L4.11912 5.04704" stroke="#828282" stroke-width="1.46069" stroke-linecap="round" stroke-linejoin="round"/>
<path d="M13.4092 14.337L14.4463 15.3741" stroke="#828282" stroke-width="1.46069" stroke-linecap="round" stroke-linejoin="round"/>
<path d="M0.730225 9.69208H2.19091" stroke="#828282" stroke-width="1.46069" stroke-linecap="round" stroke-linejoin="round"/>
<path d="M15.3372 9.69208H16.7978" stroke="#828282" stroke-width="1.46069" stroke-linecap="round" stroke-linejoin="round"/>
<path d="M3.08203 15.3741L4.11912 14.337" stroke="#828282" stroke-width="1.46069" stroke-linecap="round" stroke-linejoin="round"/>
<path d="M13.4092 5.04704L14.4463 4.00995" stroke="#828282" stroke-width="1.46069" stroke-linecap="round" stroke-linejoin="round"/>
</g>
<defs>
<clipPath id="clip0_351_98">
<rect width="17.5282" height="17.5282" fill="white" transform="translate(0 0.927917)"/>
</clipPath>
</defs>
</svg>
